<svg xmlns="http://www.w3.org/2000/svg" viewBox="0 0 64 64">
  <defs>
    <linearGradient id="g" x1="12" y1="8" x2="52" y2="58" gradientUnits="userSpaceOnUse">
      <stop stop-color="#7dd3fc"/>
      <stop offset="0.45" stop-color="#14b8a6"/>
      <stop offset="1" stop-color="#064e3b"/>
    </linearGradient>
  </defs>
  <rect width="64" height="64" rx="18" fill="#f8fafc"/>
  <circle cx="32" cy="32" r="24" fill="url(#g)"/>
  <path d="M42.8 23.4c-2.8-3.1-6.5-4.7-11.1-4.7-6.1 0-10.7 3.4-10.7 8.2 0 5.1 4.2 6.7 10.5 8.1 4.5 1 6.2 1.8 6.2 3.7 0 2.1-2.1 3.4-5.6 3.4-3.9 0-6.7-1.5-9.2-4.4l-4.4 4.8c3.3 3.8 7.9 5.8 13.5 5.8 7 0 11.9-3.6 11.9-9.4 0-5-3.6-7-10.2-8.5-4.8-1.1-6.5-1.7-6.5-3.6 0-1.7 1.7-2.9 4.5-2.9 3.1 0 5.3 1.1 7.3 3.4l3.8-3.9Z" fill="#ecfeff"/>
</svg>
